<svg id="Laag_1" xmlns="http://www.w3.org/2000/svg" viewBox="-302 261.2 354.3 39.8"><style>.st0{fill:#FFFFFF;} .st1{fill:#E30613;}</style><path d="M-302 261.2h91V301h-91z"/><path class="st0" d="M-297.1 294.9v-28.8h6.3l2.9 19.6h.1l3.1-19.6h6.1v28.8h-3.8v-22.2h-.1l-3.6 22.2h-3.7l-3.4-22.2h-.1v22.2zM-270 283.1c0-4.6-.1-6.9-1.7-6.9-1.6 0-1.7 2.3-1.7 6.9 0 6.7.3 8.2 1.7 8.2s1.7-1.4 1.7-8.2m-7-.1c0-6.3.5-11.7 5.3-11.7s5.3 5.4 5.3 11.7c0 7.2-.6 12.2-5.3 12.2s-5.3-5-5.3-12.2M-261.4 287.4c0 1 0 2 .2 2.8.2.7.6 1.1 1.3 1.1.7 0 1.3-.8 1.3-2.4 0-4.9-6.4-3.8-6.4-11.1 0-5 2.8-6.5 5.1-6.5 2.5 0 4.7 2.1 4.5 7.1h-3.6c0-1.6-.1-2.5-.4-3-.2-.4-.5-.5-.9-.5-.8 0-1.2.9-1.2 2.5 0 3.6 6.4 3.5 6.4 10.8 0 4-1.9 7-4.9 7-3.2 0-5.3-1.4-5.1-7.8h3.7zM-249.9 287.4c0 1 0 2 .2 2.8.2.7.6 1.1 1.3 1.1.7 0 1.3-.8 1.3-2.4 0-4.9-6.4-3.8-6.4-11.1 0-5 2.8-6.5 5.1-6.5 2.5 0 4.7 2.1 4.5 7.1h-3.6c0-1.6-.1-2.5-.4-3-.2-.4-.5-.5-.9-.5-.8 0-1.2.9-1.2 2.5 0 3.6 6.4 3.5 6.4 10.8 0 4-1.9 7-4.9 7-3.2 0-5.3-1.4-5.1-7.8h3.7zM-238.4 269.8h-3.6v-4.2h3.6v4.2zm0 25h-3.6v-23h3.6v23zM-232.5 274.1c.8-2 1.8-2.8 3.1-2.8 1.7 0 3.3 1.8 3.3 5v18.4h-3.6V279c0-2-.2-3.6-1.4-3.6s-1.4 1.6-1.4 3.6v15.8h-3.6v-23h3.6v2.3zM-224.4 294.8v-29.2h3.7v15.9l3.3-9.7h3.8l-3.7 10.2 4.1 12.8h-4.1l-3.4-12.5v12.5z"/><g><path class="st1" d="M-188.6 284.1h-8.3v5c0 1.1.1 1.7.2 2 .1.3.4.5.8.5.5 0 .8-.2 1-.6.2-.4.2-1.2.2-2.3v-3.1h6.1v1.7c0 1.4-.1 2.5-.2 3.3-.2.8-.5 1.6-1.1 2.5-.6.9-1.4 1.5-2.3 2-.9.4-2.1.7-3.5.7s-2.5-.2-3.6-.7c-1-.4-1.8-1-2.4-1.8-.6-.8-1-1.6-1.2-2.5-.2-.9-.3-2.2-.3-4V280c0-2 .2-3.6.7-4.8s1.3-2.1 2.4-2.7c1.1-.6 2.4-.9 3.9-.9 1.8 0 3.3.4 4.4 1.1 1.2.8 2 1.8 2.5 3s.7 3 .7 5.3v3.1zm-6.4-3.8v-1.7c0-1.2-.1-2-.2-2.3-.1-.4-.4-.5-.7-.5-.4 0-.7.1-.8.4-.1.3-.2 1.1-.2 2.4v1.7h1.9zM-179.9 266.8v28.5h-6.6v-28.5h6.6zM-163.2 284.1h-8.3v5c0 1.1.1 1.7.2 2 .1.3.4.5.8.5.5 0 .8-.2 1-.6.2-.4.2-1.2.2-2.3v-3.1h6.1v1.7c0 1.4-.1 2.5-.2 3.3-.2.8-.5 1.6-1.1 2.5s-1.4 1.5-2.3 2c-.9.4-2.1.7-3.5.7s-2.5-.2-3.6-.7c-1-.4-1.8-1-2.4-1.8-.6-.8-1-1.6-1.2-2.5-.2-.9-.3-2.2-.3-4V280c0-2 .2-3.6.7-4.8s1.3-2.1 2.4-2.7c1.1-.6 2.4-.9 3.9-.9 1.8 0 3.3.4 4.4 1.1 1.2.8 2 1.8 2.5 3s.7 3 .7 5.3v3.1zm-6.4-3.8v-1.7c0-1.2-.1-2-.2-2.3-.1-.4-.4-.5-.7-.5-.4 0-.7.1-.8.4s-.2 1.1-.2 2.4v1.7h1.9zM-147.3 272l-2.6 9.3 3.4 14h-6.1l-2-10.2v10.2h-6.4v-28.5h6.4v11.9l2-6.8 5.3.1zM-138.8 268.9v3.7h1.7v3.6h-1.7v12.5c0 1.5.1 2.4.2 2.6.1.2.7.3 1.8.3v3.8h-2.6c-1.5 0-2.5-.1-3.1-.2s-1.2-.4-1.6-.9c-.5-.5-.8-1-.9-1.7-.1-.6-.2-2.1-.2-4.4v-12h-1.4v-3.7h1.4v-3.6h6.4zM-129.3 272l-.3 3.1c.9-2.2 2.3-3.4 4-3.5v8.2c-1.2 0-2 .2-2.6.5-.5.4-.9.8-1 1.5-.1.6-.2 2.1-.2 4.3v9.2h-6.4V272h6.5zM-109.7 280.2v5.7c0 2.1-.1 3.6-.3 4.6s-.6 1.9-1.2 2.7c-.6.8-1.4 1.5-2.4 1.9s-2.1.6-3.4.6c-1.4 0-2.6-.2-3.6-.5s-1.7-.9-2.3-1.6c-.5-.7-.9-1.5-1.2-2.5-.2-1-.3-2.5-.3-4.5v-6c0-2.2.2-3.9.6-5.1.4-1.2 1.2-2.2 2.3-2.9 1.1-.7 2.5-1.1 4.2-1.1 1.4 0 2.7.2 3.7.7s1.8 1.1 2.4 1.9c.6.8.9 1.5 1.1 2.4.3.8.4 2 .4 3.7zm-6.3-1.8c0-1.2-.1-1.9-.2-2.3-.1-.3-.4-.5-.7-.5-.4 0-.6.2-.8.5-.1.3-.2 1.1-.2 2.3v10.5c0 1.1.1 1.8.2 2.2.1.3.4.5.7.5.4 0 .6-.2.8-.5.1-.3.2-1 .2-2v-10.7zM-100.8 268.9v3.7h1.7v3.6h-1.7v12.5c0 1.5.1 2.4.2 2.6.1.2.7.3 1.8.3v3.8h-2.6c-1.5 0-2.5-.1-3.1-.2s-1.2-.4-1.6-.9c-.5-.5-.8-1-.9-1.7-.1-.6-.2-2.1-.2-4.4v-12h-1.4v-3.7h1.4v-3.6h6.4zM-83.2 284.1h-8.3v5c0 1.1.1 1.7.2 2 .1.3.4.5.8.5.5 0 .8-.2 1-.6.2-.4.2-1.2.2-2.3v-3.1h6.1v1.7c0 1.4-.1 2.5-.2 3.3-.2.8-.5 1.6-1.1 2.5s-1.4 1.5-2.3 2c-.9.4-2.1.7-3.5.7-1.3 0-2.5-.2-3.6-.7-1-.4-1.8-1-2.4-1.8-.6-.8-1-1.6-1.2-2.5s-.3-2.2-.3-4V280c0-2 .2-3.6.7-4.8s1.3-2.1 2.4-2.7c1.1-.6 2.4-.9 3.9-.9 1.8 0 3.3.4 4.4 1.1 1.2.8 2 1.8 2.5 3s.7 3 .7 5.3v3.1zm-6.4-3.8v-1.7c0-1.2-.1-2-.2-2.3-.1-.4-.4-.5-.7-.5-.4 0-.7.1-.8.4s-.2 1.1-.2 2.4v1.7h1.9zM-67 280.8h-6v-2.7c0-.9-.1-1.6-.2-1.9-.1-.3-.4-.5-.8-.5s-.6.1-.7.4c-.1.3-.2.9-.2 2v11c0 .8.1 1.5.3 1.9.2.4.5.6.8.6.4 0 .7-.2.9-.7.2-.4.2-1.3.2-2.5v-2.8h5.7c0 1.9-.1 3.3-.2 4.2-.1.9-.5 1.9-1.1 2.9s-1.4 1.7-2.3 2.2c-1 .5-2.1.7-3.6.7-1.8 0-3.2-.3-4.3-1-1.1-.7-1.8-1.6-2.2-2.9-.4-1.2-.7-3-.7-5.3v-6.6c0-2 .2-3.5.5-4.5.4-1 1.1-1.9 2.3-2.7 1.2-.8 2.6-1.2 4.3-1.2s3.1.4 4.3 1.2c1.2.8 2 1.8 2.4 3 .4 1.3.6 3 .6 5.2zM-58.7 266.8v6.4c.5-.6 1.1-1 1.8-1.3.6-.3 1.3-.4 2-.4 1.1 0 2.1.3 2.9.9.8.6 1.3 1.4 1.4 2.2.2.8.3 2.3.3 4.5v16.1h-6.4v-16.3c0-1.4-.1-2.2-.2-2.6-.1-.4-.4-.6-.8-.6s-.7.2-.8.6-.2 1.2-.2 2.4v16.6h-6.4v-28.5h6.4zM-41.6 272l-.1 2.1c.5-.9 1-1.5 1.7-1.9s1.4-.6 2.3-.6c1.1 0 2 .3 2.7.9.7.6 1.1 1.3 1.3 2.2.2.9.3 2.3.3 4.4v16.3h-6.4v-16.2c0-1.6 0-2.6-.1-2.9-.1-.4-.4-.5-.8-.5-.5 0-.7.2-.9.6-.1.4-.2 1.5-.2 3.2v15.8h-6.4V272h6.6zM-24.6 266.8v3.7h-6.6v-3.7h6.6zm0 5.2v23.3h-6.6V272h6.6zM-7.8 284.1h-8.3v5c0 1.1.1 1.7.2 2 .1.3.4.5.8.5.5 0 .8-.2 1-.6.2-.4.2-1.2.2-2.3v-3.1h6.1v1.7c0 1.4-.1 2.5-.2 3.3-.2.8-.5 1.6-1.1 2.5s-1.4 1.5-2.3 2c-.9.4-2.1.7-3.5.7-1.3 0-2.5-.2-3.6-.7-1-.4-1.8-1-2.4-1.8-.6-.8-1-1.6-1.2-2.5s-.3-2.2-.3-4V280c0-2 .2-3.6.7-4.8s1.3-2.1 2.4-2.7c1.1-.6 2.4-.9 3.9-.9 1.8 0 3.3.4 4.4 1.1 1.2.8 2 1.8 2.5 3s.7 3 .7 5.3v3.1zm-6.4-3.8v-1.7c0-1.2-.1-2-.2-2.3-.1-.4-.4-.5-.7-.5-.4 0-.7.1-.8.4-.1.3-.2 1.1-.2 2.4v1.7h1.9zM8 272l-2.6 9.3 3.4 14H2.7l-2-10.2v10.2h-6.4v-28.5H.7v11.9l2-6.8 5.3.1zM28.7 266.8v6.7c.5-.7 1.1-1.2 1.8-1.5.6-.3 1.4-.5 2.1-.5.9 0 1.6.2 2.3.5.6.3 1.1.7 1.5 1.3.3.6.5 1.1.6 1.6s.1 1.7.1 3.4v10.5c0 1.7-.1 3-.3 3.8-.2.8-.7 1.6-1.4 2.2-.8.6-1.7.9-2.7.9-.7 0-1.4-.2-2.1-.5-.6-.4-1.2-.9-1.8-1.6l-.4 1.8h-6v-28.6h6.3zm1.9 11.8c0-1.2-.1-2-.2-2.4s-.4-.6-.8-.6-.6.2-.8.5c-.1.3-.2 1.1-.2 2.4v10.1c0 1.3.1 2.1.2 2.4.1.4.4.5.8.5s.7-.2.8-.5c.1-.4.2-1.2.2-2.6v-9.8zM52.3 272l-3 23.3H41L37.8 272h5.7l1.8 17c.1-1.3.4-4.3.7-9.2.2-2.7.4-5.3.6-7.9l5.7.1z"/></g></svg>